<svg width="512" height="512" viewBox="0 0 512 512" xmlns="http://www.w3.org/2000/svg">
  <defs>
    <linearGradient id="largeGrad1" x1="0%" y1="0%" x2="100%" y2="100%">
      <stop offset="0%" style="stop-color:#00d4ff;stop-opacity:1" />
      <stop offset="50%" style="stop-color:#7c4dff;stop-opacity:1" />
      <stop offset="100%" style="stop-color:#ff6b6b;stop-opacity:1" />
    </linearGradient>
    
    <linearGradient id="largeGrad2" x1="0%" y1="0%" x2="100%" y2="100%">
      <stop offset="0%" style="stop-color:#7c4dff;stop-opacity:1" />
      <stop offset="100%" style="stop-color:#ffd93d;stop-opacity:1" />
    </linearGradient>
    
    <radialGradient id="radialGrad" cx="50%" cy="50%" r="50%">
      <stop offset="0%" style="stop-color:#1a1a2e;stop-opacity:1" />
      <stop offset="100%" style="stop-color:#0f0f1a;stop-opacity:1" />
    </radialGradient>
    
    <filter id="largeGlow" x="-50%" y="-50%" width="200%" height="200%">
      <feGaussianBlur stdDeviation="8" result="coloredBlur"/>
      <feMerge> 
        <feMergeNode in="coloredBlur"/>
        <feMergeNode in="SourceGraphic"/>
      </feMerge>
    </filter>
    
    <filter id="largeShadow" x="-50%" y="-50%" width="200%" height="200%">
      <feDropShadow dx="6" dy="6" stdDeviation="8" flood-color="#00d4ff" flood-opacity="0.5"/>
    </filter>
    
    <filter id="innerGlow" x="-50%" y="-50%" width="200%" height="200%">
      <feGaussianBlur stdDeviation="3" result="coloredBlur"/>
      <feMerge> 
        <feMergeNode in="coloredBlur"/>
        <feMergeNode in="SourceGraphic"/>
      </feMerge>
    </filter>
  </defs>
  
  <!-- Background with gradient -->
  <circle cx="256" cy="256" r="240" fill="url(#radialGrad)"/>
  <circle cx="256" cy="256" r="235" fill="none" stroke="url(#largeGrad1)" stroke-width="4"/>
  <circle cx="256" cy="256" r="220" fill="none" stroke="url(#largeGrad1)" stroke-width="2" opacity="0.3"/>
  
  <!-- Outer decorative ring -->
  <circle cx="256" cy="256" r="200" fill="none" stroke="url(#largeGrad1)" stroke-width="1" opacity="0.2"/>
  
  <!-- Medical cross with enhanced glow -->
  <g filter="url(#largeGlow)">
    <!-- Vertical bar -->
    <rect x="236" y="150" width="40" height="212" rx="20" fill="url(#largeGrad1)"/>
    <!-- Horizontal bar -->
    <rect x="150" y="236" width="212" height="40" rx="20" fill="url(#largeGrad1)"/>
  </g>
  
  <!-- AI Neural network with enhanced details -->
  <g filter="url(#largeShadow)">
    <!-- Central hub -->
    <circle cx="256" cy="256" r="16" fill="#ffd93d" filter="url(#innerGlow)"/>
    
    <!-- Primary nodes -->
    <circle cx="256" cy="100" r="12" fill="#00d4ff"/>
    <circle cx="100" cy="190" r="10" fill="#7c4dff"/>
    <circle cx="100" cy="322" r="10" fill="#7c4dff"/>
    <circle cx="256" cy="412" r="12" fill="#00d4ff"/>
    <circle cx="412" cy="322" r="10" fill="#7c4dff"/>
    <circle cx="412" cy="190" r="10" fill="#7c4dff"/>
    
    <!-- Secondary nodes -->
    <circle cx="180" cy="130" r="6" fill="#00d4ff" opacity="0.8"/>
    <circle cx="332" cy="130" r="6" fill="#00d4ff" opacity="0.8"/>
    <circle cx="130" cy="256" r="6" fill="#7c4dff" opacity="0.8"/>
    <circle cx="382" cy="256" r="6" fill="#7c4dff" opacity="0.8"/>
    <circle cx="180" cy="382" r="6" fill="#00d4ff" opacity="0.8"/>
    <circle cx="332" cy="382" r="6" fill="#00d4ff" opacity="0.8"/>
    
    <!-- Primary neural connections -->
    <line x1="256" y1="100" x2="100" y2="190" stroke="#00d4ff" stroke-width="4" opacity="0.7"/>
    <line x1="256" y1="100" x2="412" y2="190" stroke="#00d4ff" stroke-width="4" opacity="0.7"/>
    <line x1="100" y1="190" x2="256" y2="256" stroke="#7c4dff" stroke-width="4" opacity="0.7"/>
    <line x1="412" y1="190" x2="256" y2="256" stroke="#7c4dff" stroke-width="4" opacity="0.7"/>
    <line x1="256" y1="256" x2="100" y2="322" stroke="#7c4dff" stroke-width="4" opacity="0.7"/>
    <line x1="256" y1="256" x2="412" y2="322" stroke="#7c4dff" stroke-width="4" opacity="0.7"/>
    <line x1="100" y1="322" x2="256" y2="412" stroke="#00d4ff" stroke-width="4" opacity="0.7"/>
    <line x1="412" y1="322" x2="256" y2="412" stroke="#00d4ff" stroke-width="4" opacity="0.7"/>
    
    <!-- Secondary connections -->
    <line x1="256" y1="100" x2="180" y2="130" stroke="#00d4ff" stroke-width="2" opacity="0.5"/>
    <line x1="256" y1="100" x2="332" y2="130" stroke="#00d4ff" stroke-width="2" opacity="0.5"/>
    <line x1="180" y1="130" x2="100" y2="190" stroke="#7c4dff" stroke-width="2" opacity="0.5"/>
    <line x1="332" y1="130" x2="412" y2="190" stroke="#7c4dff" stroke-width="2" opacity="0.5"/>
  </g>
  
  <!-- Security shield with enhanced details -->
  <path d="M256 64 L320 88 L320 150 C320 203 288 245 256 264 C224 245 192 203 192 150 L192 88 Z" 
        fill="none" 
        stroke="url(#largeGrad2)" 
        stroke-width="5" 
        opacity="0.8"
        filter="url(#innerGlow)"/>
  
  <!-- Inner shield pattern -->
  <path d="M256 88 L296 104 L296 140 C296 170 276 190 256 200 C236 190 216 170 216 140 L216 104 Z" 
        fill="none" 
        stroke="url(#largeGrad2)" 
        stroke-width="2" 
        opacity="0.5"/>
  
  <!-- Score meter arc with multiple segments -->
  <path d="M85 256 A171 171 0 0 1 427 256" 
        fill="none" 
        stroke="url(#largeGrad1)" 
        stroke-width="8" 
        opacity="0.8"/>
  
  <path d="M100 256 A156 156 0 0 1 412 256" 
        fill="none" 
        stroke="url(#largeGrad1)" 
        stroke-width="4" 
        opacity="0.5"/>
  
  <!-- Score indicators -->
  <circle cx="360" cy="190" r="8" fill="#ffd93d"/>
  <circle cx="380" cy="220" r="6" fill="#ff6b6b" opacity="0.8"/>
  <circle cx="340" cy="160" r="4" fill="#00d4ff" opacity="0.6"/>
  
  <!-- Corner accent patterns -->
  <g opacity="0.6">
    <!-- Top-left -->
    <rect x="40" y="40" width="24" height="6" fill="#00d4ff"/>
    <rect x="40" y="40" width="6" height="24" fill="#00d4ff"/>
    <rect x="50" y="50" width="14" height="2" fill="#00d4ff" opacity="0.5"/>
    <rect x="50" y="50" width="2" height="14" fill="#00d4ff" opacity="0.5"/>
    
    <!-- Top-right -->
    <rect x="448" y="40" width="24" height="6" fill="#7c4dff"/>
    <rect x="466" y="40" width="6" height="24" fill="#7c4dff"/>
    <rect x="458" y="50" width="14" height="2" fill="#7c4dff" opacity="0.5"/>
    <rect x="460" y="50" width="2" height="14" fill="#7c4dff" opacity="0.5"/>
    
    <!-- Bottom-left -->
    <rect x="40" y="466" width="24" height="6" fill="#7c4dff"/>
    <rect x="40" y="448" width="6" height="24" fill="#7c4dff"/>
    <rect x="50" y="458" width="14" height="2" fill="#7c4dff" opacity="0.5"/>
    <rect x="50" y="448" width="2" height="14" fill="#7c4dff" opacity="0.5"/>
    
    <!-- Bottom-right -->
    <rect x="448" y="466" width="24" height="6" fill="#00d4ff"/>
    <rect x="466" y="448" width="6" height="24" fill="#00d4ff"/>
    <rect x="458" y="458" width="14" height="2" fill="#00d4ff" opacity="0.5"/>
    <rect x="460" y="448" width="2" height="14" fill="#00d4ff" opacity="0.5"/>
  </g>
</svg>